<svg width="12" height="12" viewBox="0 0 12 12" fill="none" xmlns="http://www.w3.org/2000/svg">
<path d="M1.85937 11.3125C1.54687 11.3125 1.27344 11.1953 1.03906 10.9609C0.570313 10.4922 0.570313 9.74999 1.03906 9.32031L9.32031 1.03906C9.78906 0.570313 10.5312 0.570313 10.9609 1.03906C11.4297 1.50781 11.4297 2.25 10.9609 2.67968L2.67969 10.9609C2.44531 11.1953 2.17187 11.3125 1.85937 11.3125V11.3125Z" fill="#F10132"/>
<path d="M10.1406 11.3125C9.82812 11.3125 9.55468 11.1953 9.32031 10.9609L1.03906 2.67968C0.570313 2.21094 0.570313 1.46875 1.03906 1.03906C1.50781 0.570313 2.25 0.570313 2.67969 1.03906L10.9609 9.32031C11.4297 9.78905 11.4297 10.5312 10.9609 10.9609C10.7266 11.1953 10.4531 11.3125 10.1406 11.3125V11.3125Z" fill="#F10132"/>
</svg>
