<svg width="161" height="50" viewBox="0 0 161 50" fill="none" xmlns="http://www.w3.org/2000/svg">
  <path d="M30.0675 5.89421C29.2363 4.38391 28.3898 2.84575 27.5479 1.25C24.8267 5.99801 23.2815 10.9218 23.1227 15.2544C18.8513 12.1095 14.5762 11.9844 8.50977 7.75732C8.17349 15.4455 10.063 22.3754 13.7193 26.3838C9.47845 26.1345 5.35888 26.4115 0 26.9434C6.47383 35.2198 21.5604 41.9084 29.897 39.8529C34.9216 39.0094 38.75 34.6393 38.75 29.375C38.75 21.096 33.9242 12.9023 30.0675 5.89421Z" fill="#F10132"/>
  <path d="M19.1943 6.12402C25.96 13.6803 29.4041 18.1594 33.4224 28.0935C32.2019 30.2123 28.9058 31.2569 27.8615 30.8767C19.1943 27.7218 15.8459 17.961 19.1943 6.12402Z" fill="white" stroke="black" stroke-width="2"/>
  <path d="M21.4839 31.3793C19.9467 35.2742 18.2454 39.3372 16.25 43.75C19.8201 40.6856 21.6388 39.6715 26.4848 37.6321C31.3308 35.5927 34.2057 31.3449 35.8237 26.8524C37.4417 22.36 38.3371 21.0173 41.6461 20.1317C44.6655 19.3237 45.7045 19.0194 49 18.0957C42.8339 18.178 41.5529 18.6969 38.535 18.0957C34.9803 17.3244 33.3033 17.2788 31.0428 18.0957C27.5208 19.4369 24.8062 23.9966 21.4839 31.3793Z" fill="white" stroke="black" stroke-width="2" stroke-linejoin="round"/>
  <path d="M3.75 13.75C13.0443 17.0533 18.1075 19.3635 26.25 26.242C26.25 28.7893 24.304 31.1686 22.4395 31.8756C14.2722 34.9724 6.65058 26.1771 3.75 13.75Z" fill="white" stroke="black" stroke-width="2"/>
  <circle cx="33.75" cy="21.25" r="1.25" fill="black"/>
  <path d="M76.775 15.75V33.5H73.35V25.925H65.3V33.5H61.85V15.75H65.3V22.925H73.35V15.75H76.775ZM80.5279 28.6V20.4H83.8779V27.875C83.8779 28.875 84.0613 29.6333 84.4279 30.15C84.7946 30.65 85.3363 30.9 86.0529 30.9C86.4863 30.9 86.9113 30.8167 87.3279 30.65C87.7613 30.4667 88.1529 30.2 88.5029 29.85C88.8696 29.5 89.1779 29.0583 89.4279 28.525V20.4H92.7779V29.75C92.7779 30.1 92.8363 30.35 92.9529 30.5C93.0863 30.65 93.2946 30.7417 93.5779 30.775V33.5C93.2446 33.55 92.9613 33.5833 92.7279 33.6C92.5113 33.6333 92.3113 33.65 92.1279 33.65C91.5279 33.65 91.0363 33.5167 90.6529 33.25C90.2863 32.9667 90.0696 32.5833 90.0029 32.1L89.9279 31.05C89.3446 31.9333 88.5946 32.6083 87.6779 33.075C86.7613 33.525 85.7529 33.75 84.6529 33.75C83.3029 33.75 82.2779 33.3167 81.5779 32.45C80.8779 31.5667 80.5279 30.2833 80.5279 28.6ZM95.807 26.95C95.807 25.6833 96.057 24.5417 96.557 23.525C97.057 22.4917 97.7487 21.675 98.632 21.075C99.5154 20.475 100.524 20.175 101.657 20.175C102.624 20.175 103.49 20.4167 104.257 20.9C105.04 21.3667 105.649 21.9667 106.082 22.7V15.25H109.432V29.75C109.432 30.1 109.49 30.35 109.607 30.5C109.724 30.65 109.924 30.7417 110.207 30.775V33.5C109.624 33.6167 109.149 33.675 108.782 33.675C108.182 33.675 107.682 33.525 107.282 33.225C106.899 32.925 106.682 32.5333 106.632 32.05L106.582 31.225C106.099 32.0417 105.44 32.6667 104.607 33.1C103.79 33.5333 102.932 33.75 102.032 33.75C101.132 33.75 100.299 33.575 99.532 33.225C98.782 32.875 98.1237 32.3917 97.557 31.775C97.007 31.1583 96.5737 30.4417 96.257 29.625C95.957 28.7917 95.807 27.9 95.807 26.95ZM106.082 28.7V25.575C105.915 25.0917 105.649 24.6583 105.282 24.275C104.915 23.8917 104.507 23.5917 104.057 23.375C103.607 23.1417 103.157 23.025 102.707 23.025C102.19 23.025 101.724 23.1333 101.307 23.35C100.89 23.5667 100.524 23.8583 100.207 24.225C99.907 24.5917 99.6737 25.0167 99.507 25.5C99.357 25.9833 99.282 26.4917 99.282 27.025C99.282 27.5583 99.3654 28.0667 99.532 28.55C99.7154 29.0167 99.9737 29.425 100.307 29.775C100.64 30.125 101.024 30.4 101.457 30.6C101.907 30.8 102.39 30.9 102.907 30.9C103.224 30.9 103.54 30.85 103.857 30.75C104.19 30.6333 104.499 30.4833 104.782 30.3C105.082 30.1 105.34 29.8667 105.557 29.6C105.79 29.3167 105.965 29.0167 106.082 28.7ZM120.725 33.625C119.575 33.625 118.483 33.3917 117.45 32.925C116.433 32.4583 115.533 31.8167 114.75 31C113.983 30.1667 113.383 29.2 112.95 28.1C112.517 27 112.3 25.8083 112.3 24.525C112.3 23.3083 112.517 22.1667 112.95 21.1C113.383 20.0167 113.992 19.0667 114.775 18.25C115.558 17.4333 116.475 16.7917 117.525 16.325C118.575 15.8583 119.717 15.625 120.95 15.625C122.617 15.625 124.042 15.9833 125.225 16.7C126.425 17.4 127.325 18.3333 127.925 19.5L125.35 21.4C124.9 20.5167 124.267 19.8417 123.45 19.375C122.65 18.9083 121.775 18.675 120.825 18.675C120.075 18.675 119.392 18.8333 118.775 19.15C118.158 19.4667 117.625 19.9 117.175 20.45C116.725 21 116.375 21.6333 116.125 22.35C115.892 23.0667 115.775 23.825 115.775 24.625C115.775 25.475 115.9 26.2583 116.15 26.975C116.417 27.6917 116.783 28.3167 117.25 28.85C117.733 29.3833 118.292 29.8083 118.925 30.125C119.558 30.425 120.258 30.575 121.025 30.575C121.925 30.575 122.783 30.3417 123.6 29.875C124.433 29.4083 125.208 28.725 125.925 27.825V31.225C124.442 32.825 122.708 33.625 120.725 33.625ZM125.675 26.9H122.1V24.375H128.525V33.5H125.675V26.9ZM131.64 33.5V20.4H134.99V33.5H131.64ZM131.64 18.575V15.25H134.99V18.575H131.64ZM158.862 33.5H155.512V26.15C155.512 25.1167 155.329 24.3583 154.962 23.875C154.612 23.375 154.121 23.125 153.487 23.125C152.837 23.125 152.212 23.3833 151.612 23.9C151.029 24.4 150.612 25.0583 150.362 25.875V33.5H147.012V26.15C147.012 25.1 146.829 24.3333 146.462 23.85C146.112 23.3667 145.621 23.125 144.987 23.125C144.337 23.125 143.712 23.375 143.112 23.875C142.529 24.375 142.112 25.0333 141.862 25.85V33.5H138.512V20.4H141.537V22.825C142.037 21.975 142.704 21.325 143.537 20.875C144.371 20.4083 145.329 20.175 146.412 20.175C147.496 20.175 148.337 20.4417 148.937 20.975C149.554 21.5083 149.946 22.1667 150.112 22.95C150.646 22.05 151.321 21.3667 152.137 20.9C152.971 20.4167 153.904 20.175 154.937 20.175C155.754 20.175 156.412 20.325 156.912 20.625C157.429 20.9083 157.829 21.3 158.112 21.8C158.396 22.2833 158.587 22.8333 158.687 23.45C158.804 24.0667 158.862 24.6917 158.862 25.325V33.5Z" fill="black"/>
</svg>
