<svg width="16" height="16" viewBox="0 0 16 16" fill="none" xmlns="http://www.w3.org/2000/svg">
<path d="M6.82812 13.8594C6.82812 14.5234 7.33594 15.0312 8 15.0312C8.66406 15.0312 9.17188 14.5234 9.17188 13.8594V9.17188H13.8594C14.5234 9.17188 15.0312 8.66406 15.0312 8C15.0312 7.33594 14.5234 6.82812 13.8594 6.82812H9.17188V2.14062C9.17188 1.47656 8.66406 0.96875 8 0.96875C7.33594 0.96875 6.82812 1.47656 6.82812 2.14062V6.82812H2.14062C1.47656 6.82812 0.96875 7.33594 0.96875 8C0.96875 8.66406 1.47656 9.17188 2.14062 9.17188H6.82812V13.8594Z" fill="#F10132"/>
</svg>
