<svg width="26" height="25" viewBox="0 0 26 25" xmlns="http://www.w3.org/2000/svg">
<path d="M22.105 15.3255C22.9639 15.9888 23.6957 16.802 24.2652 17.7258C24.9953 18.8759 23.4652 18.9759 23.4652 18.9759H20.5548C20.0321 19.0135 19.5135 18.8608 19.0946 18.5458C17.9945 17.8258 16.9444 15.9555 16.0943 16.1956C15.2442 16.4356 15.2942 18.1158 15.2942 18.1158C15.3162 18.321 15.2629 18.5271 15.1442 18.6959C14.973 18.8347 14.7638 18.9184 14.5441 18.9359H13.2739C12.2516 18.9274 11.2413 18.7152 10.3019 18.3116C9.36262 17.9081 8.51317 17.3213 7.80329 16.5856C5.02295 13.8153 2.53266 8.28463 2.53266 8.28463C2.53266 8.28463 2.43264 7.93459 2.58266 7.75456C2.73268 7.57454 3.23274 7.56454 3.23274 7.56454H6.34311C6.52087 7.59363 6.69095 7.65826 6.84317 7.75456C6.96838 7.85915 7.07054 7.98855 7.14321 8.13461C7.47187 8.92753 7.85621 9.6962 8.29334 10.4349C9.6035 12.6051 10.2036 13.1152 10.6536 12.8852C11.3037 12.5451 11.1037 9.81481 11.1037 9.81481C11.1324 9.3167 11.0288 8.81986 10.8036 8.37464C10.5387 8.09975 10.1837 7.92936 9.80352 7.89458C9.6235 7.89458 9.93354 7.49453 10.3036 7.31451C11.1978 7.04765 12.1338 6.9493 13.0639 7.02448C13.5883 7.00606 14.1128 7.05649 14.6241 7.1745C15.7042 7.42453 15.3242 8.40464 15.3242 10.7249C15.3242 11.465 15.1642 12.4851 15.7242 12.8352C15.9643 12.9852 16.5643 12.8352 18.0345 10.4849C18.502 9.70137 18.9066 8.88204 19.2446 8.0346C19.3173 7.89977 19.42 7.78344 19.5447 7.69456C19.6849 7.62663 19.839 7.59238 19.9947 7.59455H23.3151C23.3151 7.59455 24.3153 7.45453 24.4753 7.88458C24.6353 8.31463 24.0152 9.38476 22.7151 11.105C20.4948 13.9253 20.2648 13.6953 22.105 15.3255Z" fill="currentColor"/>
</svg>
