<?xml version="1.0" standalone="no"?>
<!DOCTYPE svg PUBLIC "-//W3C//DTD SVG 20010904//EN"
 "http://www.w3.org/TR/2001/REC-SVG-20010904/DTD/svg10.dtd">
<svg version="1.0" xmlns="http://www.w3.org/2000/svg"
 width="100.000000pt" height="100.000000pt" viewBox="0 0 100.000000 100.000000"
 preserveAspectRatio="xMidYMid meet">
<metadata>
Created by potrace 1.14, written by Peter Selinger 2001-2017
</metadata>
<g transform="translate(0.000000,100.000000) scale(0.100000,-0.100000)"
fill="#000000" stroke="none">
<path d="M509 887 l-33 -83 -45 50 c-24 28 -48 52 -52 54 -4 2 -15 -31 -24
-72 -9 -42 -20 -76 -24 -76 -3 0 -41 18 -84 40 l-78 41 1 -58 c1 -32 1 -61 1
-65 -1 -4 -26 2 -56 14 -31 11 -58 19 -60 16 -10 -9 26 -125 61 -196 20 -41
34 -75 32 -77 -1 -1 -34 -5 -72 -8 -37 -3 -70 -8 -73 -10 -7 -7 95 -94 160
-136 33 -22 89 -52 123 -67 l63 -26 -24 -54 c-32 -73 -16 -86 45 -38 66 53 79
58 145 60 107 4 156 22 206 77 45 49 65 139 48 217 -11 51 15 73 114 100 96
26 120 37 114 53 -2 8 -41 12 -128 12 -68 0 -132 5 -141 10 -9 6 -36 46 -58
90 -65 124 -111 204 -120 210 -4 3 -23 -32 -41 -78z"/>
</g>
</svg>
